HIERARCHY
ROOT Hips
{
	OFFSET -0.001795 -0.223333 0.028219
	CHANNELS 6 Xposition Yposition Zposition Zrotation Yrotation Xrotation 
	JOINT LeftUpLeg
	{
		OFFSET 0.069520 -0.091406 -0.006815
		CHANNELS 3 Zrotation Yrotation Xrotation
		JOINT LeftLeg
		{
			OFFSET 0.034277 -0.375199 -0.004496
			CHANNELS 3 Zrotation Yrotation Xrotation
			JOINT LeftFoot
			{
				OFFSET -0.013596 -0.397961 -0.043693
				CHANNELS 3 Zrotation Yrotation Xrotation
				JOINT LeftToe
				{
					OFFSET 0.026358 -0.055791 0.119288
					CHANNELS 3 Zrotation Yrotation Xrotation
					End Site
					{
						OFFSET 0.000000 0.000000 0.000000
					}
				}
			}
		}
	}
	JOINT RightUpLeg
	{
		OFFSET -0.067670 -0.090522 -0.004320
		CHANNELS 3 Zrotation Yrotation Xrotation
		JOINT RightLeg
		{
			OFFSET -0.038290 -0.382569 -0.008850
			CHANNELS 3 Zrotation Yrotation Xrotation
			JOINT RightFoot
			{
				OFFSET 0.015774 -0.398415 -0.042312
				CHANNELS 3 Zrotation Yrotation Xrotation
				JOINT RightToe
				{
					OFFSET -0.025372 -0.048144 0.123348
					CHANNELS 3 Zrotation Yrotation Xrotation
					End Site
					{
						OFFSET 0.000000 0.000000 0.000000
					}
				}
			}
		}
	}
	JOINT Spine
	{
		OFFSET -0.002533 0.108963 -0.026696
		CHANNELS 3 Zrotation Yrotation Xrotation
		JOINT Spine1
		{
			OFFSET 0.005487 0.135180 0.001092
			CHANNELS 3 Zrotation Yrotation Xrotation
			JOINT Spine2
			{
				OFFSET 0.001457 0.052922 0.025425
				CHANNELS 3 Zrotation Yrotation Xrotation
				JOINT Neck
				{
					OFFSET -0.002778 0.213870 -0.042857
					CHANNELS 3 Zrotation Yrotation Xrotation
					JOINT Head
					{
						OFFSET 0.005152 0.064970 0.051349
						CHANNELS 3 Zrotation Yrotation Xrotation
						End Site
						{
							OFFSET 0.000000 0.000000 0.000000
						}
					}
				}
				JOINT LeftShoulder
				{
					OFFSET 0.078845 0.121749 -0.034090
					CHANNELS 3 Zrotation Yrotation Xrotation
					JOINT LeftArm
					{
						OFFSET 0.090977 0.030469 -0.008868
						CHANNELS 3 Zrotation Yrotation Xrotation
						JOINT LeftForeArm
						{
							OFFSET 0.259612 -0.012772 -0.027456
							CHANNELS 3 Zrotation Yrotation Xrotation
							JOINT LeftHand
							{
								OFFSET 0.249234 0.008986 -0.001171
								CHANNELS 3 Zrotation Yrotation Xrotation
								End Site
								{
									OFFSET 0.000000 0.000000 0.000000
								}
							}
						}
					}
				}
				JOINT RightShoulder
				{
					OFFSET -0.081759 0.118833 -0.038615
					CHANNELS 3 Zrotation Yrotation Xrotation
					JOINT RightArm
					{
						OFFSET -0.096012 0.032551 -0.009143
						CHANNELS 3 Zrotation Yrotation Xrotation
						JOINT RightForeArm
						{
							OFFSET -0.253742 -0.013329 -0.021401
							CHANNELS 3 Zrotation Yrotation Xrotation
							JOINT RightHand
							{
								OFFSET -0.255298 0.007772 -0.005559
								CHANNELS 3 Zrotation Yrotation Xrotation
								End Site
								{
									OFFSET 0.000000 0.000000 0.000000
								}
							}
						}
					}
				}
			}
		}
	}
}
MOTION
Frames: 14
Frame Time: 0.050000
0.329834 0.820706 -1.560034 -3.799772 -13.244771 17.914499 3.701476 -0.393226 -38.480148 0.595810 2.545377 65.309907 5.478340 8.458709 -14.849162 0.000000 0.000000 0.000000 -4.241384 3.983803 -35.267670 12.829333 -1.905336 55.576197 -9.460941 -25.602999 -23.486981 0.000000 0.000000 0.000000 3.276079 -1.092176 37.957821 -8.866842 2.112027 -29.592637 -1.412611 10.618110 29.475733 11.758602 -1.125151 -46.380052 0.000000 0.000000 0.000000 -21.212593 -21.689515 10.536637 -29.345336 -22.898370 -0.370326 10.463968 -35.817761 -1.897967 0.000000 0.000000 0.000000 31.738534 5.894426 3.845650 34.331103 20.241333 -0.765426 -10.982441 47.157170 -1.872085 0.000000 0.000000 0.000000 
0.331382 0.820509 -1.560512 -3.877012 -13.357710 18.340962 4.130954 -0.266423 -37.829470 0.094331 3.051659 65.036085 5.333404 8.356001 -13.774346 0.000000 0.000000 0.000000 -3.918911 3.867513 -33.955790 11.774552 -1.206575 53.858054 -9.426858 -25.045720 -24.060307 0.000000 0.000000 0.000000 2.872753 -0.939558 36.856267 -8.203255 2.001265 -29.454565 -1.205043 10.938101 29.799184 11.518311 -1.069465 -46.035770 0.000000 0.000000 0.000000 -20.031425 -22.042041 10.553372 -29.341013 -23.655135 -0.240097 10.562701 -35.893795 -1.946637 0.000000 0.000000 0.000000 31.406335 6.713510 4.511803 33.741812 20.806298 -0.692324 -12.619924 46.763403 -2.534980 0.000000 0.000000 0.000000 
0.333255 0.818899 -1.560059 -3.782273 -13.683698 18.537124 4.202035 -0.258581 -36.865857 -0.260012 3.554694 65.165417 5.314295 8.383222 -13.560985 0.000000 0.000000 0.000000 -4.064171 3.706305 -32.940247 11.150687 -0.745832 53.417627 -9.318775 -24.159877 -24.552816 0.000000 0.000000 0.000000 3.061307 -0.984742 36.263056 -8.676033 2.086871 -29.314262 -0.769345 11.003461 29.835657 11.747438 -1.198934 -45.758156 0.000000 0.000000 0.000000 -19.545015 -22.637995 10.870841 -28.699276 -23.913222 -0.239450 11.458673 -36.321801 -2.266961 0.000000 0.000000 0.000000 31.083177 6.793529 4.501376 33.353091 21.128042 -0.617670 -13.826903 46.721598 -3.043778 0.000000 0.000000 0.000000 
0.335187 0.814892 -1.559433 -3.644357 -13.736825 18.433460 3.693229 -0.448044 -36.140007 -0.197684 3.569948 65.324352 5.612965 9.372707 -13.053219 0.000000 0.000000 0.000000 -4.471269 3.518698 -32.187153 10.690978 -0.449004 53.685478 -9.138302 -22.989585 -24.382686 0.000000 0.000000 0.000000 2.771992 -0.868064 36.034417 -7.976254 1.971993 -29.116396 -0.702684 10.950002 29.678877 11.981721 -1.249427 -46.032899 0.000000 0.000000 0.000000 -18.690859 -23.089349 11.021600 -28.866147 -23.974576 -0.205087 11.667934 -36.434959 -2.345742 0.000000 0.000000 0.000000 31.162620 7.553236 4.999532 32.250643 20.941188 -0.680416 -14.360211 46.860303 -3.359711 0.000000 0.000000 0.000000 
0.336856 0.809822 -1.558936 -3.786729 -13.870583 18.447639 3.534193 -0.489657 -35.978272 0.187524 3.422607 66.334550 5.689278 9.600302 -12.835436 0.000000 0.000000 0.000000 -4.786721 3.403541 -31.717106 10.596119 -0.326662 54.373774 -9.053536 -22.484661 -24.793430 0.000000 0.000000 0.000000 2.802452 -0.855037 36.292461 -7.885547 1.949941 -29.283057 -0.618759 10.706630 29.574736 12.287737 -1.401665 -45.972408 0.000000 0.000000 0.000000 -17.918673 -23.978792 11.476349 -28.794983 -24.388813 -0.129641 12.884269 -35.731856 -2.678533 0.000000 0.000000 0.000000 31.395447 8.311326 5.440319 32.107315 20.931964 -0.658161 -14.986099 46.669552 -3.633950 0.000000 0.000000 0.000000 
0.338200 0.803597 -1.558655 -3.911636 -13.653454 19.084644 3.351180 -0.569155 -36.320383 0.698595 3.027340 67.797425 5.608105 9.457862 -12.158457 0.000000 0.000000 0.000000 -5.107426 3.338283 -31.787781 10.891919 -0.545415 55.776109 -9.087785 -23.162710 -24.933160 0.000000 0.000000 0.000000 2.672063 -0.817169 37.019836 -7.464362 1.862259 -29.767044 -0.739126 10.157141 29.350921 13.477957 -1.873937 -45.813712 0.000000 0.000000 0.000000 -17.157392 -24.526194 11.775789 -28.603295 -24.771406 -0.080724 14.165207 -34.490456 -2.947062 0.000000 0.000000 0.000000 31.591738 8.968872 5.766615 31.587238 21.142178 -0.580842 -14.686125 46.571583 -3.557608 0.000000 0.000000 0.000000 
0.339146 0.798545 -1.558677 -4.002292 -13.449601 19.419677 3.301054 -0.595898 -36.784080 0.907398 2.841753 68.936149 5.652517 9.397845 -12.661250 0.000000 0.000000 0.000000 -5.456923 3.291961 -32.025499 11.423193 -0.918036 57.332372 -9.039613 -23.326168 -25.143586 0.000000 0.000000 0.000000 2.310766 -0.680304 37.667951 -6.729180 1.733858 -29.643453 -1.046955 9.957676 29.087899 14.060597 -2.089831 -45.633815 0.000000 0.000000 0.000000 -16.357207 -25.055294 11.928919 -28.555805 -25.341634 0.046933 15.115750 -33.253794 -3.114173 0.000000 0.000000 0.000000 31.822568 9.512441 6.171925 31.544791 21.093171 -0.571524 -14.120558 46.145421 -3.305251 0.000000 0.000000 0.000000 
0.339803 0.794690 -1.559055 -4.194717 -13.361339 20.179479 3.501579 -0.517228 -37.417712 1.223483 2.543989 69.208214 5.776942 9.395733 -14.058044 0.000000 0.000000 0.000000 -5.345744 3.420424 -32.832396 11.601681 -1.037738 58.865426 -8.869557 -22.667352 -26.087029 0.000000 0.000000 0.000000 1.882870 -0.504987 38.009846 -6.128198 1.627320 -29.370542 -1.122096 9.799314 28.829653 14.913089 -2.337328 -45.855989 0.000000 0.000000 0.000000 -15.511195 -25.433416 12.015520 -28.869752 -25.649127 0.148663 15.912291 -32.642638 -3.271988 0.000000 0.000000 0.000000 31.881882 10.190546 6.648642 31.279500 21.498266 -0.472131 -13.943191 45.565015 -3.202167 0.000000 0.000000 0.000000 
0.340146 0.790990 -1.559962 -4.607500 -13.433096 21.486818 3.579843 -0.436505 -38.300105 1.509492 2.363251 69.715543 6.173362 10.042710 -16.181674 0.000000 0.000000 0.000000 -5.747503 3.575626 -34.397712 12.550664 -1.689092 60.719798 -8.892351 -23.535020 -25.054722 0.000000 0.000000 0.000000 1.453123 -0.274476 38.926272 -5.726933 1.546166 -29.243993 -1.212508 9.706521 28.491590 14.892751 -2.170444 -46.414451 0.000000 0.000000 0.000000 -14.767240 -25.378656 11.893125 -29.037832 -26.164113 0.277535 16.939074 -32.431565 -3.522041 0.000000 0.000000 0.000000 31.274052 10.661655 6.958983 31.668967 22.116174 -0.284153 -13.466636 45.378752 -2.968497 0.000000 0.000000 0.000000 
0.340006 0.784075 -1.561168 -5.182389 -13.312398 22.453531 4.547359 -0.103580 -38.779634 1.432875 2.538334 70.927369 6.521075 10.744966 -17.443053 0.000000 0.000000 0.000000 -5.902160 3.737855 -35.788345 13.268777 -2.278431 63.270534 -8.770485 -23.410390 -24.564142 0.000000 0.000000 0.000000 1.151991 -0.069966 40.743314 -5.227894 1.461915 -29.726390 -1.295358 9.845012 28.244856 15.142630 -2.003805 -47.199000 0.000000 0.000000 0.000000 -14.289572 -24.716205 11.405008 -29.203302 -26.057910 0.295481 17.575723 -34.326336 -3.930025 0.000000 0.000000 0.000000 30.599730 10.338961 6.856310 31.946779 22.670344 -0.142055 -12.473199 45.423142 -2.514538 0.000000 0.000000 0.000000 
0.339320 0.774950 -1.562430 -5.869784 -13.122470 23.717014 5.453046 0.247745 -39.747645 1.545691 2.542455 72.642400 6.865914 11.519284 -18.330111 0.000000 0.000000 0.000000 -5.745100 3.967731 -37.156008 13.618236 -2.646137 65.669832 -8.769577 -23.907227 -23.799827 0.000000 0.000000 0.000000 0.913174 0.071237 41.820308 -4.888540 1.394038 -29.871434 -1.459190 9.833083 28.239052 15.146170 -1.864158 -47.644842 0.000000 0.000000 0.000000 -13.947579 -24.599257 11.302162 -28.744400 -25.578013 0.143066 18.606489 -35.364840 -4.385751 0.000000 0.000000 0.000000 30.099956 10.655549 7.163441 32.467189 23.525046 0.061232 -12.447361 45.965238 -2.454841 0.000000 0.000000 0.000000 
0.338225 0.763291 -1.563481 -6.384937 -12.587439 24.751469 6.702827 0.696922 -40.888115 1.097925 2.940206 74.750168 7.071145 11.463338 -20.485438 0.000000 0.000000 0.000000 -5.799646 4.142838 -38.744042 14.004888 -3.248498 68.201606 -8.754820 -24.514158 -24.549936 0.000000 0.000000 0.000000 1.096482 -0.013692 43.431978 -5.183849 1.438646 -29.707511 -1.665214 9.545231 27.524475 15.430270 -1.694320 -48.487520 0.000000 0.000000 0.000000 -13.141648 -23.809464 10.756274 -28.899412 -25.237331 0.159995 19.603119 -37.811965 -5.043431 0.000000 0.000000 0.000000 28.848544 10.172887 6.758259 33.462993 23.537441 0.233897 -11.209860 47.446932 -1.947451 0.000000 0.000000 0.000000 
0.336981 0.749303 -1.564608 -6.408842 -12.099454 25.446613 8.125278 1.243007 -42.386676 0.228135 3.790350 77.597493 6.951870 10.363192 -21.613419 0.000000 0.000000 0.000000 -6.046268 4.280705 -40.604082 14.159446 -3.798689 71.242050 -8.925927 -26.290550 -25.086683 0.000000 0.000000 0.000000 0.564346 0.219111 44.362633 -4.875226 1.399228 -30.025095 -1.611509 9.095442 27.967916 15.130900 -1.467021 -49.244783 0.000000 0.000000 0.000000 -11.991246 -22.159564 9.816797 -30.021076 -24.924298 0.141032 19.950165 -40.167263 -5.467786 0.000000 0.000000 0.000000 28.507239 9.532791 6.284913 33.576632 23.466692 0.186450 -10.243284 49.368921 -1.544043 0.000000 0.000000 0.000000 
0.335995 0.729638 -1.565899 -6.434601 -11.303794 26.916505 10.093413 2.035756 -44.470466 -0.979007 5.052714 81.470014 6.460029 8.052824 -21.709244 0.000000 0.000000 0.000000 -6.942820 4.280230 -43.146700 14.767518 -5.150292 75.411640 -8.951568 -26.845840 -24.151711 0.000000 0.000000 0.000000 0.737941 0.071262 46.008346 -4.865881 1.389252 -30.615835 -1.909548 8.938125 26.969416 15.938867 -1.680306 -48.510454 0.000000 0.000000 0.000000 -11.345986 -21.044560 9.124072 -29.328367 -23.862131 -0.044795 19.631631 -44.013392 -5.954578 0.000000 0.000000 0.000000 27.942302 7.978353 5.331051 33.615938 22.085095 -0.089167 -8.883858 52.676859 -0.884604 0.000000 0.000000 0.000000 
